<svg width="25" height="25" viewBox="0 0 25 25" fill="none" xmlns="http://www.w3.org/2000/svg">
<g clip-path="url(#clip0_19_324)">
<g filter="url(#filter0_ddd_19_324)">
<rect width="25" height="25" rx="3.5" fill="black"/>
</g>
</g>
<g style="mix-blend-mode:lighten" opacity="0.17">
<rect width="25" height="25" rx="3.5" fill="url(#paint0_linear_19_324)"/>
</g>
<path d="M10.7945 17.4033C11.1298 17.4033 11.3869 17.2715 11.566 17.0078L16.1119 10.0498C16.1737 9.95215 16.2193 9.85775 16.2486 9.7666C16.2779 9.67546 16.2925 9.58757 16.2925 9.50293C16.2925 9.27507 16.216 9.08626 16.063 8.93652C15.9101 8.78678 15.7164 8.71191 15.482 8.71191C15.3225 8.71191 15.1874 8.74447 15.0767 8.80957C14.9693 8.87142 14.8651 8.97884 14.7642 9.13184L10.775 15.4355L8.74371 12.9209C8.57119 12.7093 8.35472 12.6035 8.0943 12.6035C7.85992 12.6035 7.66461 12.68 7.50836 12.833C7.35537 12.9827 7.27887 13.1732 7.27887 13.4043C7.27887 13.5052 7.29677 13.6029 7.33258 13.6973C7.36839 13.7917 7.43024 13.8893 7.51813 13.9902L10.0377 17.042C10.2395 17.2829 10.4918 17.4033 10.7945 17.4033Z" fill="white"/>
<defs>
<filter id="filter0_ddd_19_324" x="-3" y="-2.5" width="31" height="31" filterUnits="userSpaceOnUse" color-interpolation-filters="sRGB">
<feFlood flood-opacity="0" result="BackgroundImageFix"/>
<feColorMatrix in="SourceAlpha" type="matrix" values="0 0 0 0 0 0 0 0 0 0 0 0 0 0 0 0 0 0 127 0" result="hardAlpha"/>
<feOffset dy="0.5"/>
<feGaussianBlur stdDeviation="0.5"/>
<feColorMatrix type="matrix" values="0 0 0 0 1 0 0 0 0 1 0 0 0 0 1 0 0 0 0.24 0"/>
<feBlend mode="normal" in2="BackgroundImageFix" result="effect1_dropShadow_19_324"/>
<feColorMatrix in="SourceAlpha" type="matrix" values="0 0 0 0 0 0 0 0 0 0 0 0 0 0 0 0 0 0 127 0" result="hardAlpha"/>
<feOffset dy="1"/>
<feGaussianBlur stdDeviation="1"/>
<feColorMatrix type="matrix" values="0 0 0 0 1 0 0 0 0 1 0 0 0 0 1 0 0 0 0.12 0"/>
<feBlend mode="normal" in2="effect1_dropShadow_19_324" result="effect2_dropShadow_19_324"/>
<feColorMatrix in="SourceAlpha" type="matrix" values="0 0 0 0 0 0 0 0 0 0 0 0 0 0 0 0 0 0 127 0" result="hardAlpha"/>
<feOffset dy="0.5"/>
<feGaussianBlur stdDeviation="1.5"/>
<feColorMatrix type="matrix" values="0 0 0 0 1 0 0 0 0 1 0 0 0 0 1 0 0 0 0.12 0"/>
<feBlend mode="normal" in2="effect2_dropShadow_19_324" result="effect3_dropShadow_19_324"/>
<feBlend mode="normal" in="SourceGraphic" in2="effect3_dropShadow_19_324" result="shape"/>
</filter>
<linearGradient id="paint0_linear_19_324" x1="0.480535" y1="0" x2="0.480535" y2="24.0389" gradientUnits="userSpaceOnUse">
<stop stop-color="white"/>
<stop offset="1" stop-color="white" stop-opacity="0.01"/>
</linearGradient>
<clipPath id="clip0_19_324">
<rect width="25" height="25" fill="white"/>
</clipPath>
</defs>
</svg>
